<svg width="74" height="24" viewBox="0 0 74 24" fill="none" xmlns="http://www.w3.org/2000/svg">
<path d="M5.37667 19.74C5.21962 19.74 5.06411 19.7093 4.91906 19.6495C4.77401 19.5897 4.64227 19.5021 4.53138 19.3917C4.42049 19.2813 4.33264 19.1503 4.27285 19.0061C4.21307 18.862 4.18253 18.7075 4.18299 18.5516V2.72506L1.71211 3.97571C1.42977 4.10926 1.10598 4.12782 0.810026 4.02742C0.51407 3.92702 0.269446 3.71562 0.128485 3.43846C-0.0124757 3.16129 -0.038579 2.84037 0.0557594 2.54434C0.150098 2.24832 0.357386 2.00069 0.63328 1.85445L3.89762 0.206501C4.17894 0.0609539 4.49343 -0.00981109 4.81047 0.00109418C5.12751 0.0119995 5.43631 0.104203 5.70681 0.268732C5.97731 0.43326 6.20029 0.664508 6.35406 0.939968C6.50782 1.21543 6.58713 1.52572 6.58426 1.84063V18.5516C6.58474 18.7087 6.55375 18.8643 6.4931 19.0093C6.43245 19.1544 6.34335 19.2861 6.23098 19.3967C6.11861 19.5073 5.98521 19.5946 5.83855 19.6535C5.69189 19.7125 5.53488 19.7419 5.37667 19.74Z" fill="#B8B8B8"/>
<path d="M23.2297 11.8875C23.2238 10.4056 22.7097 8.96995 21.7722 7.81682C20.8346 6.66369 19.5295 5.86185 18.0717 5.5433C16.6139 5.22476 15.0903 5.40849 13.7517 6.06427C12.4131 6.72004 11.3393 7.80876 10.7072 9.15117C10.075 10.4936 9.92214 12.0097 10.2737 13.4499C10.6253 14.89 11.4604 16.1684 12.6415 17.0746C13.8226 17.9807 15.2793 18.4606 16.7718 18.4353C18.2643 18.4099 19.7036 17.8807 20.8528 16.935V17.8367C20.8528 19.9096 19.0884 21.402 16.6767 21.402H16.3948C15.1837 21.402 14.3067 21.402 12.9634 20.8631C12.8183 20.8039 12.6629 20.7738 12.5061 20.7744C12.3493 20.7751 12.1941 20.8065 12.0496 20.8668C11.905 20.9272 11.7739 21.0153 11.6638 21.1261C11.5536 21.237 11.4666 21.3683 11.4078 21.5126C11.289 21.8046 11.2912 22.1313 11.4137 22.4217C11.5362 22.7122 11.7692 22.9429 12.062 23.0638C13.3501 23.5913 14.7381 23.8353 16.1303 23.779H16.6767C20.4247 23.779 23.2506 21.2258 23.2506 17.8367V12.4852C23.2559 12.4185 23.2559 12.3515 23.2506 12.2848C23.2193 12.1535 23.2297 12.0222 23.2297 11.8875ZM16.6767 16.0505C15.8507 16.0505 15.0433 15.8074 14.3565 15.3518C13.6698 14.8963 13.1345 14.2488 12.8184 13.4913C12.5023 12.7337 12.4196 11.9001 12.5808 11.0959C12.7419 10.2917 13.1397 9.55304 13.7237 8.97324C14.3077 8.39344 15.0519 7.99859 15.8619 7.83863C16.672 7.67866 17.5117 7.76076 18.2748 8.07454C19.0379 8.38833 19.6901 8.9197 20.149 9.60148C20.6079 10.2832 20.8528 11.0848 20.8528 11.9047C20.8528 13.0043 20.4128 14.0588 19.6296 14.8363C18.8465 15.6137 17.7842 16.0505 16.6767 16.0505Z" fill="#B8B8B8"/>
<path d="M27.4085 18.4239C27.2515 18.4239 27.096 18.3932 26.9509 18.3334C26.8059 18.2736 26.6741 18.186 26.5632 18.0756C26.4523 17.9652 26.3645 17.8342 26.3047 17.69C26.2449 17.5458 26.2144 17.3914 26.2148 17.2355V9.51395C26.2148 7.25795 28.0454 5.36816 30.2135 5.36816H32.1798C32.4973 5.36816 32.8018 5.49338 33.0263 5.71626C33.2508 5.93913 33.3769 6.24142 33.3769 6.55662C33.3769 6.87182 33.2508 7.17411 33.0263 7.39699C32.8018 7.61987 32.4973 7.74508 32.1798 7.74508H30.2135C29.3678 7.74508 28.5987 8.59496 28.5987 9.52776V17.2355C28.5992 17.3911 28.5688 17.5453 28.5092 17.6892C28.4496 17.8332 28.3621 17.964 28.2516 18.0744C28.141 18.1848 28.0097 18.2724 27.8651 18.3324C27.7204 18.3924 27.5653 18.4235 27.4085 18.4239Z" fill="#B8B8B8"/>
<path d="M46.4973 11.8875C46.4927 10.4058 45.98 8.96979 45.0436 7.8159C44.1073 6.66201 42.8031 5.85899 41.3457 5.53903C39.8884 5.21907 38.3647 5.40123 37.0255 6.05553C35.6863 6.70983 34.6115 7.79728 33.9779 9.13886C33.3443 10.4805 33.1896 11.9962 33.5395 13.4367C33.8893 14.8771 34.7228 16.1564 35.9026 17.0639C37.0825 17.9715 38.5384 18.4532 40.0308 18.4297C41.5232 18.4063 42.9631 17.8791 44.1134 16.935V17.2425C44.1047 17.4032 44.129 17.5641 44.185 17.7152C44.2409 17.8663 44.3273 18.0045 44.4388 18.1214C44.5504 18.2383 44.6847 18.3314 44.8337 18.395C44.9827 18.4586 45.1432 18.4914 45.3054 18.4914C45.4676 18.4914 45.628 18.4586 45.777 18.395C45.926 18.3314 46.0604 18.2383 46.1719 18.1214C46.2835 18.0045 46.3698 17.8663 46.4258 17.7152C46.4817 17.5641 46.5061 17.4032 46.4973 17.2425V11.891V11.8875ZM39.9373 16.0333C39.1113 16.0333 38.3039 15.7901 37.6172 15.3346C36.9304 14.879 36.3951 14.2316 36.0791 13.474C35.763 12.7165 35.6803 11.8829 35.8414 11.0787C36.0026 10.2745 36.4003 9.53579 36.9843 8.95599C37.5684 8.37619 38.3125 7.98134 39.1226 7.82138C39.9327 7.66141 40.7724 7.74351 41.5354 8.0573C42.2985 8.37108 42.9508 8.90246 43.4096 9.58423C43.8685 10.266 44.1134 11.0675 44.1134 11.8875C44.1157 12.4334 44.0094 12.9743 43.8006 13.4793C43.5917 13.9843 43.2845 14.4434 42.8964 14.8302C42.5084 15.217 42.0473 15.5239 41.5395 15.7333C41.0317 15.9428 40.4872 16.0506 39.9373 16.0506V16.0333Z" fill="#B8B8B8"/>
<path d="M57.8345 18.4244C57.6775 18.4244 57.522 18.3936 57.3769 18.3338C57.2319 18.2741 57.1001 18.1865 56.9892 18.0761C56.8783 17.9657 56.7905 17.8346 56.7307 17.6905C56.6709 17.5463 56.6404 17.3918 56.6409 17.2359V10.1086C56.6409 9.48006 56.3893 8.87724 55.9416 8.43278C55.4939 7.98832 54.8867 7.73862 54.2535 7.73862C53.6203 7.73862 53.0131 7.98832 52.5654 8.43278C52.1177 8.87724 51.8661 9.48006 51.8661 10.1086V17.2359C51.8661 17.5502 51.7404 17.8516 51.5165 18.0738C51.2927 18.2961 50.9891 18.4209 50.6725 18.4209C50.3559 18.4209 50.0523 18.2961 49.8284 18.0738C49.6046 17.8516 49.4788 17.5502 49.4788 17.2359V10.1086C49.4616 9.47562 49.5723 8.84561 49.8044 8.25579C50.0365 7.66597 50.3853 7.1283 50.8303 6.67453C51.2752 6.22076 51.8072 5.86009 52.3948 5.61382C52.9825 5.36754 53.6139 5.24066 54.2518 5.24066C54.8896 5.24066 55.521 5.36754 56.1087 5.61382C56.6963 5.86009 57.2283 6.22076 57.6733 6.67453C58.1182 7.1283 58.467 7.66597 58.6991 8.25579C58.9312 8.84561 59.0419 9.47562 59.0247 10.1086V17.2359C59.0252 17.3915 58.9948 17.5457 58.9352 17.6897C58.8756 17.8336 58.7881 17.9645 58.6776 18.0749C58.567 18.1852 58.4357 18.2729 58.2911 18.3328C58.1464 18.3928 57.9913 18.4239 57.8345 18.4244Z" fill="#B8B8B8"/>
<path d="M64.9941 18.4244C64.8371 18.4244 64.6816 18.3936 64.5365 18.3338C64.3915 18.2741 64.2597 18.1865 64.1489 18.0761C64.038 17.9657 63.9501 17.8346 63.8903 17.6905C63.8305 17.5463 63.8 17.3918 63.8005 17.2359V10.1086C63.8005 9.48006 63.5489 8.87724 63.1012 8.43278C62.6535 7.98832 62.0463 7.73862 61.4131 7.73862C60.7799 7.73862 60.1727 7.98832 59.725 8.43278C59.2773 8.87724 59.0258 9.48006 59.0258 10.1086V17.2359C59.0345 17.3967 59.0102 17.5575 58.9542 17.7087C58.8983 17.8598 58.8119 17.998 58.7004 18.1149C58.5888 18.2318 58.4545 18.3248 58.3055 18.3885C58.1565 18.4521 57.996 18.4849 57.8338 18.4849C57.6716 18.4849 57.5112 18.4521 57.3622 18.3885C57.2132 18.3248 57.0788 18.2318 56.9673 18.1149C56.8557 17.998 56.7694 17.8598 56.7134 17.7087C56.6575 17.5575 56.6331 17.3967 56.6419 17.2359V10.1086C56.6247 9.47562 56.7354 8.84561 56.9675 8.25579C57.1996 7.66597 57.5484 7.1283 57.9934 6.67453C58.4383 6.22076 58.9703 5.86009 59.5579 5.61382C60.1456 5.36754 60.777 5.24066 61.4148 5.24066C62.0527 5.24066 62.6841 5.36754 63.2718 5.61382C63.8594 5.86009 64.3914 6.22076 64.8364 6.67453C65.2813 7.1283 65.6301 7.66597 65.8622 8.25579C66.0943 8.84561 66.205 9.47562 66.1878 10.1086V17.2359C66.1878 17.5505 66.0622 17.8523 65.8384 18.0751C65.6147 18.2978 65.311 18.4235 64.9941 18.4244Z" fill="#B8B8B8"/>
<path d="M69.2253 23.7719H25.1462C24.8287 23.7719 24.5242 23.6467 24.2997 23.4238C24.0752 23.2009 23.9491 22.8987 23.9491 22.5835C23.9491 22.2683 24.0752 21.966 24.2997 21.7431C24.5242 21.5202 24.8287 21.395 25.1462 21.395H69.2253C69.541 21.3959 69.8538 21.3347 70.1456 21.215C70.4374 21.0953 70.7024 20.9194 70.9253 20.6974C71.1482 20.4755 71.3247 20.2119 71.4444 19.9218C71.5642 19.6318 71.6249 19.3211 71.6231 19.0077V4.76005C71.6231 4.44762 71.561 4.13826 71.4405 3.84965C71.3199 3.56104 71.1433 3.29886 70.9206 3.0781C70.6979 2.85734 70.4335 2.68233 70.1426 2.56308C69.8517 2.44383 69.54 2.38269 69.2253 2.38314H13.0668C12.7493 2.38314 12.4448 2.25793 12.2203 2.03505C11.9958 1.81217 11.8696 1.50988 11.8696 1.19468C11.8696 0.879484 11.9958 0.577196 12.2203 0.354317C12.4448 0.131438 12.7493 0.00622559 13.0668 0.00622559L69.2253 0.00622559C70.4929 0.00988373 71.7073 0.512346 72.6024 1.40347C73.4974 2.29459 74 3.50165 74 4.76005V19.0077C74.0018 19.6318 73.8797 20.2502 73.6407 20.8275C73.4017 21.4047 73.0505 21.9296 72.6071 22.372C72.1636 22.8145 71.6367 23.1658 71.0565 23.406C70.4762 23.6462 69.854 23.7706 69.2253 23.7719Z" fill="#B8B8B8"/>
</svg>
