<svg width="217" height="490" viewBox="0 0 217 490" fill="none" xmlns="http://www.w3.org/2000/svg">
<path fill-rule="evenodd" clip-rule="evenodd" d="M73.334 328.896L103.292 450.19H128L111.245 216.914L77.2229 221.156L73.334 328.896Z" fill="#3C3744"/>
<path d="M77.6647 361.806C77.199 361.806 76.7682 361.492 76.6517 361.014L67.5349 324.083C67.5116 323.989 67.5 323.896 67.5 323.791L71.3889 216.051C71.4122 215.538 71.7964 215.119 72.2971 215.049L106.319 210.818C106.599 210.783 106.89 210.865 107.111 211.052C107.332 211.238 107.472 211.494 107.484 211.786L109.521 240.163C109.568 240.734 109.125 241.235 108.555 241.282C107.984 241.317 107.484 240.886 107.437 240.314L105.493 213.021L73.4382 217.007L69.5842 323.721L78.6661 360.513C78.8058 361.072 78.4681 361.632 77.9092 361.771C77.8277 361.795 77.7462 361.806 77.6647 361.806Z" fill="#556EE6"/>
<path d="M123.214 446.169H98.5066C98.0293 446.169 97.6101 445.843 97.4937 445.377L83.4866 388.657C83.3469 388.098 83.6845 387.538 84.2434 387.399C84.8023 387.259 85.3612 387.597 85.5009 388.156L99.3217 444.083H122.096L112.723 313.594C112.677 313.023 113.119 312.522 113.69 312.476C114.26 312.429 114.761 312.872 114.807 313.443L124.262 445.05C124.285 445.342 124.18 445.621 123.983 445.831C123.785 446.041 123.505 446.169 123.214 446.169Z" fill="#556EE6"/>
<path fill-rule="evenodd" clip-rule="evenodd" d="M33.6763 215.702C33.8276 222.006 31.9414 453.756 31.9414 453.756H58.4069C60.4562 442.556 92.1146 218.534 92.1146 218.534C92.1146 218.534 33.5249 209.397 33.6763 215.702Z" fill="#3C3744"/>
<path fill-rule="evenodd" clip-rule="evenodd" d="M97.1685 54.1785C95.8179 63.5948 103.875 78.5468 96.3185 91.8556C86.2353 109.605 44.0396 98.3468 39.8247 96.2725C37.0536 94.9089 34.2475 93.1492 34.4804 82.7889C34.7132 72.4285 51.1304 57.7795 52.0852 46.079C52.6674 38.9701 56.2885 20.8366 63.8101 17.6784C94.0714 0.65198 98.5191 44.7621 97.1685 54.1785Z" fill="#FB5D64"/>
<path d="M37.2391 70.1562C37.0528 70.1562 36.8665 70.1096 36.6919 69.9931C36.2029 69.6901 36.0515 69.0491 36.3542 68.5596C37.4254 66.8349 38.613 65.0518 39.7541 63.327C43.9457 56.9989 48.277 50.4493 48.7311 44.832C49.0338 41.0678 50.0701 34.5648 51.9563 28.6679C54.3665 21.1394 57.4753 16.7109 61.1662 15.5222C61.7135 15.3473 62.2956 15.6503 62.4819 16.1981C62.6566 16.7458 62.3538 17.3285 61.8066 17.515C58.8259 18.4823 56.113 22.5612 53.9357 29.3205C52.096 35.0543 51.0947 41.3591 50.8036 45.0185C50.303 51.1718 45.8203 57.9428 41.4773 64.4924C40.3363 66.2055 39.1719 67.9769 38.1124 69.6784C37.9261 69.9814 37.5884 70.1562 37.2391 70.1562Z" fill="#556EE6"/>
<path d="M37.5307 96.1558C37.2513 96.1558 36.9835 96.0509 36.7739 95.8295C36.4595 95.5032 36.0986 95.1885 35.7144 94.8622C34.1425 93.5104 32.1748 91.8206 31.4413 87.1241C31.3482 86.5531 31.744 86.0171 32.3146 85.9355C32.8851 85.8422 33.4207 86.2385 33.5022 86.8095C34.1193 90.7485 35.6212 92.042 37.0766 93.289C37.4841 93.6386 37.9033 93.9998 38.2875 94.4077C38.6834 94.8272 38.6717 95.4798 38.2526 95.8877C38.043 96.0625 37.7869 96.1558 37.5307 96.1558Z" fill="#556EE6"/>
<path d="M29.3106 279.926C29.299 279.926 29.299 279.926 29.3106 279.926C28.7284 279.926 28.2627 279.448 28.2627 278.877C28.5887 235.28 28.7168 212.194 28.6702 210.271C28.6586 209.84 28.7867 209.199 29.4387 208.616C30.9756 207.264 35.9474 205.772 61.2019 208.488C74.9295 209.968 88.1797 212.031 88.3195 212.042C88.8783 212.136 89.2742 212.66 89.1927 213.219L87.1668 227.565C87.0853 228.136 86.5613 228.533 85.9908 228.451C85.4203 228.369 85.0244 227.845 85.1059 227.274L86.9805 213.965C83.5224 213.441 71.8091 211.716 59.9677 210.469C51.7475 209.607 45.0758 209.14 40.1623 209.082C31.9653 208.989 30.8825 210.096 30.766 210.248C30.8126 212.357 30.6729 235.443 30.3585 278.889C30.3469 279.46 29.8811 279.926 29.3106 279.926Z" fill="#556EE6"/>
<path d="M62.3203 395.79C62.2738 395.79 62.2155 395.79 62.169 395.778C61.5984 395.697 61.2026 395.172 61.2841 394.601C66.8613 355.747 74.2315 303.922 79.4245 267.294C79.506 266.723 80.0299 266.326 80.6004 266.408C81.171 266.489 81.5668 267.014 81.4853 267.585C76.2924 304.213 68.9338 356.05 63.345 394.892C63.2751 395.417 62.821 395.79 62.3203 395.79Z" fill="#556EE6"/>
<path d="M54.4481 449.351H27.9825C27.703 449.351 27.4352 449.234 27.2373 449.048C27.0394 448.861 26.9346 448.582 26.9346 448.302C26.9346 447.789 27.3654 396.163 27.7845 341.681C27.7845 341.11 28.2503 340.644 28.8208 340.644C28.8208 340.644 28.8208 340.644 28.8325 340.644C29.403 340.644 29.8687 341.121 29.8687 341.692C29.4845 391.874 29.0886 439.631 29.0304 447.265H53.5632C53.9241 445.109 54.6577 440.237 55.7522 432.756C55.8337 432.185 56.3693 431.788 56.9398 431.87C57.5103 431.952 57.9062 432.488 57.8247 433.059C56.5323 441.822 55.7522 447.008 55.4727 448.488C55.3796 448.99 54.9488 449.351 54.4481 449.351Z" fill="#556EE6"/>
<path fill-rule="evenodd" clip-rule="evenodd" d="M134.986 141.21C137.117 144.834 143.311 154.973 143.311 154.973C143.311 154.973 173.141 112.192 174.934 109.616C176.728 107.041 176.436 99.4774 178.404 99.5706C180.372 99.6522 216.036 98.883 216.036 102.309C216.036 105.724 195.299 110.514 191.2 113.241C187.102 115.979 152.451 187.301 138.968 187.301C125.485 187.301 112.677 170.042 111.571 165.52C110.465 160.987 117.428 111.341 134.986 141.21Z" fill="white"/>
<path d="M168.053 145.056C167.879 145.056 167.692 145.009 167.529 144.916C167.029 144.624 166.866 143.984 167.157 143.482C170.813 137.294 174.283 131.187 177.333 125.803C183.795 114.417 186.974 108.905 188.359 107.973C190.059 106.842 194.053 105.502 198.675 103.952C202.04 102.822 205.533 101.656 208.27 100.514C211.39 99.209 212.333 98.4166 212.613 98.067C212.054 97.7756 210.179 97.1463 204.055 96.7151C200.049 96.4354 194.74 96.2606 188.301 96.214C187.731 96.214 187.265 95.7362 187.265 95.1651C187.265 94.5941 187.731 94.1279 188.301 94.1279C188.301 94.1279 188.301 94.1279 188.313 94.1279C195.38 94.1862 201.074 94.3843 205.254 94.7106C207.979 94.9321 210.098 95.2117 211.576 95.5497C212.543 95.7711 214.813 96.2956 214.813 97.9038C214.813 100.468 209.853 102.402 199.339 105.933C195.043 107.367 190.991 108.73 189.512 109.709C189.314 109.849 188.557 110.642 186.007 114.907C184.179 117.96 181.839 122.074 179.138 126.829C176.076 132.225 172.606 138.331 168.938 144.543C168.752 144.869 168.403 145.056 168.053 145.056Z" fill="#556EE6"/>
<path d="M136.698 183.945C129.014 183.945 122.086 178.782 117.638 174.458C112.596 169.564 108.929 163.958 108.3 161.371C107.823 159.401 108.614 151.488 110.361 144.24C112.026 137.376 115.053 128.752 120.048 126.724C124.298 124.987 128.874 128.216 133.624 136.292C135.266 139.077 139.353 145.79 141.111 148.68C146.141 141.466 170.22 106.924 171.815 104.64C172.49 103.661 172.863 101.551 173.2 99.6869C173.282 99.2324 173.363 98.7662 173.445 98.335C173.55 97.764 174.097 97.4027 174.667 97.5076C175.238 97.6125 175.599 98.1602 175.494 98.7312C175.413 99.1508 175.331 99.5936 175.25 100.06C174.865 102.239 174.47 104.488 173.526 105.84C171.757 108.392 142.206 150.766 141.903 151.197C141.705 151.488 141.367 151.652 141.018 151.64C140.669 151.628 140.343 151.442 140.156 151.139C140.098 151.034 133.927 140.953 131.82 137.364C129.572 133.53 127.407 130.884 125.392 129.498C123.751 128.367 122.249 128.087 120.828 128.67C117.568 129.999 114.564 135.709 112.387 144.752C110.535 152.432 110 159.576 110.326 160.905C110.803 162.874 114.122 168.165 119.093 172.99C125.008 178.724 131.261 181.893 136.71 181.893C138.258 181.893 141.228 180.588 146.537 174.353C146.91 173.911 147.573 173.864 148.004 174.237C148.446 174.61 148.493 175.274 148.12 175.705C143.37 181.241 139.632 183.945 136.698 183.945Z" fill="#556EE6"/>
<path fill-rule="evenodd" clip-rule="evenodd" d="M100.068 94.7688C118.325 86.6694 137.862 129.556 138.328 138.797C132.949 142.748 108.113 153.237 102.222 152.654C97.2967 144.962 78.3295 104.418 100.068 94.7688Z" fill="#55E6DE"/>
<path d="M99.1948 150.51C98.9852 150.51 98.7873 150.498 98.601 150.487C98.2866 150.452 97.9955 150.277 97.8325 150.009C95.8531 146.921 91.8361 138.996 88.8671 129.789C86.3055 121.841 83.8022 110.549 86.4103 101.831C87.9938 96.5405 91.2656 92.7646 96.1209 90.6086C100.371 88.7207 104.935 89.2451 109.686 92.1702C117.882 97.2164 124.601 108.206 127.884 114.313C132.297 122.529 135.65 131.456 135.848 135.535C135.872 135.884 135.709 136.222 135.429 136.432C132.739 138.402 125.299 142.014 117.335 145.196C113.213 146.839 103.514 150.51 99.1948 150.51ZM96.9592 92.5198C92.6745 94.4194 89.7985 97.7525 88.4013 102.437C85.9446 110.642 88.378 121.492 90.8464 129.16C93.5943 137.679 97.3435 145.242 99.2996 148.436C105.424 148.401 127.675 139.147 133.718 135.092C133.298 131.572 130.585 123.776 126.045 115.315C122.866 109.395 116.38 98.7431 108.591 93.9649C104.458 91.4127 100.545 90.9349 96.9592 92.5198Z" fill="#556EE6"/>
<path d="M64.5671 449.397H19.6817C19.1112 449.397 18.6338 448.931 18.6338 448.349C18.6338 447.766 19.0995 447.3 19.6817 447.3H64.5671C65.1376 447.3 65.615 447.766 65.615 448.349C65.615 448.931 65.1376 449.397 64.5671 449.397Z" fill="#556EE6"/>
<path d="M63.8804 457.602H18.9952C18.4246 457.602 17.9473 457.136 17.9473 456.553C17.9473 455.97 18.413 455.504 18.9952 455.504H63.8804C64.451 455.504 64.9283 455.97 64.9283 456.553C64.9283 457.136 64.451 457.602 63.8804 457.602Z" fill="#556EE6"/>
<path d="M128.827 446.274H94.2579C93.6873 446.274 93.21 445.808 93.21 445.225C93.21 444.643 93.6757 444.177 94.2579 444.177H128.827C129.398 444.177 129.875 444.643 129.875 445.225C129.875 445.808 129.409 446.274 128.827 446.274Z" fill="#556EE6"/>
<path d="M129.642 453.873H95.0723C94.5018 453.873 94.0244 453.406 94.0244 452.823C94.0244 452.241 94.4901 451.774 95.0723 451.774H129.642C130.212 451.774 130.689 452.241 130.689 452.823C130.689 453.406 130.212 453.873 129.642 453.873Z" fill="#556EE6"/>
<path fill-rule="evenodd" clip-rule="evenodd" d="M76.0931 82.6373C116.391 83.0102 124.274 152.759 112.199 217.531C105.842 222.111 44.8188 225.549 34.2582 218.417C23.7093 211.296 21.4272 82.1245 76.0931 82.6373Z" fill="#55E6DE"/>
<path d="M50.6179 220.223C50.5946 220.223 50.5829 220.223 50.5596 220.223C40.1737 219.641 33.3623 218.312 30.3234 216.261C28.4255 214.979 26.8769 210.912 25.7126 204.176C24.5948 197.72 23.9661 189.515 23.8729 180.425C23.6633 158.807 26.5626 136.665 31.837 119.685C35.7143 107.204 40.8257 97.3796 47.02 90.4921C54.2273 82.4859 62.8784 78.477 72.7287 78.5702C83.429 78.6751 92.3595 83.4881 99.2757 92.9045C105.528 101.4 109.999 113.439 112.572 128.682C112.666 129.253 112.281 129.789 111.723 129.882C111.152 129.976 110.616 129.591 110.523 129.032C108.008 114.115 103.654 102.379 97.5991 94.1515C91.0904 85.2945 82.7071 80.7611 72.7054 80.6679C72.6006 80.6679 72.4958 80.6679 72.4027 80.6679C50.6994 80.6679 39.4402 102.204 33.8164 120.326C28.6002 137.108 25.7359 159.005 25.9455 180.425C26.027 189.271 26.6674 197.591 27.7502 203.85C29.2289 212.45 30.9754 214.222 31.4761 214.56C33.3507 215.818 38.1943 217.473 50.6644 218.172C51.235 218.207 51.6774 218.697 51.6425 219.268C51.6192 219.792 51.1651 220.223 50.6179 220.223Z" fill="#556EE6"/>
<path d="M82.2062 219.85C81.659 219.85 81.2049 219.431 81.17 218.871C81.135 218.3 81.5658 217.799 82.1364 217.764C96.8536 216.785 105.505 215.131 107.891 213.849C110.732 198.477 112.397 183.234 112.852 168.538C112.863 167.979 113.329 167.524 113.888 167.524C113.899 167.524 113.911 167.524 113.923 167.524C114.493 167.548 114.947 168.026 114.936 168.597C114.482 183.537 112.77 199.048 109.859 214.676C109.813 214.944 109.661 215.177 109.44 215.329C105.621 218.079 87.6786 219.477 82.2644 219.839C82.2528 219.85 82.2295 219.85 82.2062 219.85Z" fill="#556EE6"/>
<path fill-rule="evenodd" clip-rule="evenodd" d="M43.655 94.1279C64.3919 97.9737 52.9465 148.692 47.3111 157.327C40.1853 157.607 12.3111 151.885 7.71191 147.748C8.56188 137.795 18.9594 89.5479 43.655 94.1279Z" fill="#55E6DE"/>
<path d="M6.10506 145.336C6.07013 145.336 6.04684 145.336 6.01191 145.336C5.44139 145.289 5.01059 144.777 5.05716 144.206C5.39482 140.162 7.19954 130.43 10.7508 120.221C13.813 111.399 19.1456 99.6171 27.1563 93.4988C31.8136 89.9443 36.8785 88.6507 42.2228 89.6413C42.7933 89.7462 43.1659 90.2939 43.0611 90.8533C42.9563 91.4243 42.4091 91.7973 41.8502 91.6924C37.1113 90.8067 32.5937 91.9721 28.4254 95.1536C20.8339 100.946 15.6992 112.355 12.7301 120.897C9.27206 130.85 7.46733 140.581 7.15296 144.38C7.09475 144.928 6.64066 145.336 6.10506 145.336Z" fill="#556EE6"/>
<path d="M45.169 154.927C41.1055 154.927 32.1866 153.517 23.4657 151.466C22.9069 151.338 22.5576 150.778 22.6856 150.207C22.8137 149.648 23.3726 149.298 23.9431 149.426C32.3729 151.396 41.2336 152.818 45.1108 152.829C47.4977 148.669 51.3284 136.083 52.5626 122.459C52.6092 121.888 53.1215 121.468 53.692 121.515C54.2625 121.562 54.6933 122.074 54.6351 122.645C53.4242 136.129 49.4887 149.962 46.5779 154.438C46.3916 154.717 46.0889 154.892 45.7512 154.915C45.5533 154.915 45.367 154.927 45.169 154.927Z" fill="#556EE6"/>
<path fill-rule="evenodd" clip-rule="evenodd" d="M12.6962 148.866C10.6121 155.299 3.28834 182.651 4.08009 190.564C4.8602 198.466 39.7556 252.516 45.1348 256.688C47.3937 252.773 52.8661 243.042 52.8661 243.042C49.9087 238.695 32.199 188.303 32.3736 182.826C32.5483 177.349 39.2898 159.04 41.1994 155.917" fill="white"/>
<path d="M30.9173 188.326C30.4632 188.326 30.0441 188.023 29.916 187.569C28.4839 182.441 28.3441 180.938 28.3674 180.25C28.5537 174.447 35.4234 155.975 37.3445 152.829C37.6472 152.339 38.2876 152.188 38.7767 152.479C39.2657 152.782 39.4171 153.423 39.126 153.913C37.1932 157.071 30.6146 175.262 30.4516 180.309C30.44 180.786 30.603 182.29 31.9303 186.998C32.0817 187.557 31.7673 188.128 31.2084 188.28C31.1036 188.315 31.0105 188.326 30.9173 188.326Z" fill="#556EE6"/>
<path d="M42.1644 255.173C41.9315 255.173 41.7103 255.103 41.524 254.952C38.5433 252.644 27.9478 237.145 19.0289 223.02C14.7208 216.203 0.597338 193.513 0.0617399 188.105C-0.497145 182.418 2.86781 167.874 4.92869 159.716C5.06841 159.157 5.63894 158.819 6.19783 158.959C6.75671 159.099 7.09437 159.67 6.95465 160.229C3.5082 173.887 1.75004 183.98 2.14591 187.907C2.47193 191.147 9.78401 204.502 20.7987 221.913C29.8107 236.166 38.5782 248.799 41.9315 252.458C44.0506 248.752 47.6484 242.366 48.6963 240.501C46.6005 236.62 40.8603 221.074 36.1913 207.334C36.005 206.786 36.2961 206.192 36.8433 206.006C37.3906 205.819 37.9844 206.11 38.1707 206.658C43.5732 222.577 49.3484 237.809 50.7689 239.895C50.9901 240.221 51.0134 240.653 50.8154 240.991C50.7572 241.084 45.3198 250.768 43.0842 254.649C42.9328 254.905 42.6767 255.092 42.3856 255.15C42.2925 255.162 42.2342 255.173 42.1644 255.173Z" fill="#556EE6"/>
<path fill-rule="evenodd" clip-rule="evenodd" d="M31.0568 460.503L30.2883 477.681L27.0049 489.72L69.1426 490L56.4628 469.489L56.6259 460.352" fill="white"/>
<path d="M66.0688 487.436C66.0688 487.436 66.0572 487.436 66.0688 487.436L40.7443 487.272C40.1737 487.272 39.708 486.795 39.708 486.224C39.708 485.653 40.1737 485.186 40.7443 485.186C40.7443 485.186 40.7443 485.186 40.7559 485.186L64.1942 485.338L52.5042 466.424C52.3994 466.249 52.3412 466.051 52.3528 465.853L52.5158 456.716C52.5275 456.145 53.0048 455.679 53.5754 455.69C54.1459 455.702 54.6116 456.18 54.6 456.751L54.437 465.585L66.9537 485.839C67.1517 486.165 67.1633 486.573 66.977 486.899C66.7907 487.226 66.4414 487.436 66.0688 487.436Z" fill="#556EE6"/>
<path d="M23.9191 487.156C23.826 487.156 23.7328 487.144 23.6397 487.121C23.0808 486.97 22.7548 486.398 22.9062 485.839L26.1546 473.917L26.9114 456.855C26.9347 456.284 27.4237 455.841 27.9942 455.865C28.5647 455.888 29.0188 456.377 28.9838 456.948L28.2154 474.127C28.2154 474.208 28.2037 474.278 28.1805 474.36L24.8971 486.398C24.804 486.853 24.3848 487.156 23.9191 487.156Z" fill="#556EE6"/>
<path fill-rule="evenodd" clip-rule="evenodd" d="M103.794 455.248L105.866 463.825L102.42 488.415L159.146 487.96L127.383 466.657L126.766 455.084" fill="white"/>
<path d="M124.274 465.643C123.727 465.643 123.261 465.212 123.238 464.652L122.621 453.08C122.586 452.509 123.029 452.019 123.611 451.984C124.193 451.949 124.682 452.392 124.705 452.975L125.322 464.547C125.357 465.118 124.915 465.608 124.333 465.643C124.321 465.643 124.298 465.643 124.274 465.643Z" fill="#556EE6"/>
<path d="M99.3216 487.401C99.0189 487.401 98.7394 487.273 98.5415 487.051C98.3435 486.818 98.2504 486.515 98.297 486.224L101.708 461.82L99.6825 453.429C99.5428 452.87 99.8921 452.311 100.451 452.171C101.01 452.031 101.569 452.381 101.708 452.94L103.781 461.517C103.816 461.645 103.816 461.774 103.804 461.902L100.533 485.303L152.672 484.884L133.809 472.239C133.332 471.913 133.204 471.272 133.518 470.794C133.844 470.316 134.485 470.188 134.962 470.503L156.63 485.035C157.015 485.292 157.178 485.758 157.05 486.201C156.922 486.643 156.514 486.935 156.06 486.946L99.3216 487.401C99.3332 487.401 99.3332 487.401 99.3216 487.401Z" fill="#556EE6"/>
<path fill-rule="evenodd" clip-rule="evenodd" d="M55.0776 43.3403C54.2859 26.8849 63.7287 13.0517 76.1755 12.4573C88.6223 11.8513 99.3576 24.7173 100.149 41.1727C100.941 57.6281 91.4983 71.4613 79.0514 72.0673C66.6046 72.6617 55.8694 59.8074 55.0776 43.3403Z" fill="white"/>
<path fill-rule="evenodd" clip-rule="evenodd" d="M58.0117 54.1201C58.8035 58.0358 61.9356 79.6423 61.7027 92.2285C65.4519 95.5266 79.8548 95.0721 82.3349 91.8323C81.7877 86.7045 81.3103 74.0717 82.5328 70.7153" fill="white"/>
<path d="M80.2273 90.2354C79.7034 90.2354 79.2493 89.8391 79.1911 89.3031C78.5623 83.3946 77.7007 72.9762 78.9582 69.4917C79.1561 68.9556 79.7499 68.6643 80.2972 68.8624C80.8328 69.0605 81.1122 69.6548 80.9259 70.2026C80.1225 72.4284 80.2506 79.479 81.2752 89.0816C81.3334 89.6527 80.9259 90.1654 80.3438 90.2237C80.3088 90.2354 80.2739 90.2354 80.2273 90.2354Z" fill="#556EE6"/>
<path d="M69.5853 92.8928C65.6498 92.8928 61.0507 92.2519 58.9083 90.3756C58.6754 90.1775 58.5474 89.8745 58.559 89.5714C58.6754 83.3482 57.9419 75.0856 57.3132 69.2586C57.2549 68.6876 57.6625 68.1748 58.233 68.1049C58.8035 68.0466 59.3158 68.4545 59.3857 69.0256C60.0028 74.7593 60.7247 82.8122 60.6548 89.082C62.5178 90.3173 66.7793 91.0049 71.3551 90.7602C71.9256 90.7252 72.4263 91.168 72.4496 91.7507C72.4845 92.3218 72.0421 92.8229 71.4599 92.8462C70.8661 92.8695 70.2374 92.8928 69.5853 92.8928Z" fill="#556EE6"/>
<path d="M56.8466 58.3621C56.3343 58.3621 55.8918 57.9892 55.822 57.4647C55.461 54.9359 55.1001 52.7218 54.8905 51.6729C54.774 51.1136 55.1466 50.5542 55.7055 50.4493C56.2644 50.3328 56.8233 50.7057 56.9281 51.2651C57.1494 52.3605 57.4987 54.563 57.8829 57.1618C57.9644 57.7328 57.5685 58.2572 56.998 58.3388C56.9514 58.3621 56.8932 58.3621 56.8466 58.3621Z" fill="#556EE6"/>
<path d="M76.4426 71.0649C72.9729 71.0649 69.5031 70.0627 66.3478 68.1515C65.8587 67.8485 65.6957 67.2075 65.9985 66.7181C66.3012 66.2286 66.9416 66.0655 67.4306 66.3685C70.5394 68.2564 73.8345 69.1304 77.2227 68.9673C85.6991 68.5594 93.0927 61.4739 96.0501 50.9272C96.2015 50.3678 96.7837 50.0532 97.3309 50.2047C97.8898 50.3562 98.2042 50.9389 98.0528 51.4866C94.8509 62.919 86.7121 70.5988 77.3159 71.0533C77.0248 71.0533 76.7337 71.0649 76.4426 71.0649Z" fill="#556EE6"/>
<path d="M98.0291 36.5693C97.5168 36.5693 97.0744 36.1964 96.9929 35.672C96.6203 32.9799 95.9566 30.3695 95.0368 27.9105C94.8389 27.3744 95.1067 26.7684 95.6423 26.5703C96.1778 26.3722 96.7833 26.6402 96.9812 27.1763C97.9592 29.7751 98.6578 32.5371 99.0537 35.3806C99.1352 35.9517 98.7393 36.4761 98.1688 36.5577C98.1339 36.5693 98.0757 36.5693 98.0291 36.5693Z" fill="#556EE6"/>
<path fill-rule="evenodd" clip-rule="evenodd" d="M73.0889 39.0409C73.0074 37.2345 73.7759 35.7311 74.8123 35.6845C75.8486 35.6378 76.7685 37.0597 76.85 38.8545C76.9431 40.6609 76.163 42.1643 75.1267 42.2109C74.0903 42.2692 73.1704 40.8474 73.0889 39.0409Z" fill="#556EE6"/>
<path fill-rule="evenodd" clip-rule="evenodd" d="M106.355 33.8777C106.355 33.8661 106.379 33.8545 106.402 33.8545C106.425 33.8545 106.448 33.8661 106.448 33.8777C106.448 33.8893 106.425 33.9009 106.402 33.9009C106.367 33.9009 106.355 33.8893 106.355 33.8777Z" fill="#556EE6"/>
<path d="M89.8557 50.0063C89.7393 50.0063 89.6345 49.983 89.518 49.9481C84.8607 48.3633 83.1491 43.0146 82.8697 40.113C82.8114 39.542 83.2306 39.0292 83.8128 38.971C84.3833 38.9127 84.8956 39.3322 84.9538 39.9149C85.1867 42.327 86.549 46.7319 90.205 47.9787C90.7523 48.1652 91.0433 48.7595 90.857 49.3072C90.694 49.7383 90.2865 50.0063 89.8557 50.0063Z" fill="#556EE6"/>
<path d="M77.8395 59.9937C77.8045 59.9937 77.7579 59.9937 77.723 59.982C74.8121 59.6557 73.2169 56.6257 73.2286 54.6446C73.2286 54.0736 73.6943 53.6074 74.2649 53.6074C74.2649 53.6074 74.2649 53.6074 74.2765 53.6074C74.847 53.6074 75.3128 54.0852 75.3128 54.6563C75.3011 55.8333 76.3491 57.7328 77.9442 57.9076C78.5148 57.9659 78.934 58.4903 78.8641 59.0614C78.8175 59.6091 78.3634 59.9937 77.8395 59.9937Z" fill="#556EE6"/>
<path d="M93.559 88.8137C93.2563 88.8137 92.9536 88.6855 92.744 88.4175C92.3831 87.963 92.4529 87.3104 92.907 86.9491C93.0235 86.8559 95.8993 84.4436 96.3883 78.9897C96.6328 76.286 96.0506 71.9159 95.4918 67.6856C94.8048 62.4997 94.1528 57.6052 94.7466 54.715C94.8631 54.1557 95.4103 53.7827 95.9808 53.8993C96.5397 54.0158 96.9122 54.5635 96.7958 55.1346C96.2719 57.6867 96.9355 62.6279 97.5642 67.4176C98.1697 71.9625 98.7402 76.2511 98.4724 79.1878C97.9019 85.574 94.374 88.4641 94.2227 88.5923C94.0131 88.7438 93.7919 88.8137 93.559 88.8137Z" fill="#556EE6"/>
<path fill-rule="evenodd" clip-rule="evenodd" d="M51.8981 10.2318C51.6886 5.96633 54.9836 2.33016 59.245 2.13204C63.5065 1.92226 67.1392 5.22045 67.3371 9.48595C67.5467 13.7514 64.2516 17.3876 59.9902 17.5857C55.7288 17.7955 52.1077 14.4973 51.8981 10.2318Z" fill="#FB5D64"/>
<path d="M52.1672 14.6714C51.8645 14.6714 51.5618 14.5432 51.3522 14.2868C50.1878 12.8185 49.5242 11.0704 49.431 9.20583C49.3146 6.86344 50.118 4.61429 51.7015 2.8779C53.2733 1.1415 55.4274 0.127636 57.7794 0.0110993C60.1197 -0.105437 62.3669 0.698664 64.1018 2.28356C65.8366 3.8568 66.8496 6.02438 66.966 8.36676C67.0359 9.81182 66.7448 11.2685 66.1161 12.5737C65.8716 13.0981 65.2428 13.3079 64.7305 13.0632C64.2065 12.8185 63.997 12.1892 64.2415 11.6764C64.7189 10.6858 64.9401 9.57874 64.8819 8.47165C64.8004 6.68864 64.0202 5.03382 62.6929 3.8335C61.3655 2.63317 59.654 2.00387 57.8725 2.0971C56.0911 2.17868 54.4377 2.95947 53.2384 4.28799C52.0391 5.6165 51.422 7.32959 51.5152 9.1126C51.585 10.5343 52.0857 11.8745 52.9823 12.9816C53.3432 13.4361 53.2733 14.0887 52.8193 14.45C52.6213 14.5898 52.4001 14.6714 52.1672 14.6714Z" fill="#556EE6"/>
<path fill-rule="evenodd" clip-rule="evenodd" d="M76.3379 11.8279C63.8911 12.434 54.4366 26.2557 55.24 42.7229C55.3448 44.8905 55.6243 46.9882 56.0551 49.0044C60.0953 42.921 65.4629 36.5462 69.0491 32.9801C77.1529 32.6421 88.447 30.1132 97.296 27.3978C93.1393 17.7832 85.1752 11.3967 76.3379 11.8279Z" fill="#FB5D64"/>
<path d="M54.1694 48.1768C54.0995 48.1768 54.0413 48.1651 53.9714 48.1535C53.5639 48.0719 53.2379 47.7572 53.1447 47.3493C52.6907 45.2167 52.4112 43.0374 52.3064 40.8931C52.1434 37.5018 52.3996 34.1571 53.0632 30.9406C53.1797 30.3812 53.7269 30.0199 54.2974 30.1365C54.8563 30.253 55.2289 30.8008 55.1008 31.3718C54.4721 34.4135 54.2276 37.5833 54.3789 40.7998C54.4372 42.0118 54.5536 43.2355 54.7283 44.4475C58.6987 38.8187 63.3095 33.4579 66.4066 30.3812C66.5929 30.1948 66.8374 30.0899 67.0936 30.0782C71.3434 29.9034 76.8391 29.0876 83.0102 27.7241C83.569 27.5959 84.1279 27.9572 84.256 28.5166C84.3841 29.076 84.0231 29.6354 83.4643 29.7636C77.3747 31.1154 71.9023 31.9312 67.5943 32.1526C64.1827 35.6022 59.0596 41.6506 55.0193 47.7223C54.8447 48.002 54.5187 48.1768 54.1694 48.1768Z" fill="#556EE6"/>
<path d="M53.9367 32.7119C53.8668 32.7119 53.7969 32.7003 53.7271 32.6886C53.1682 32.5721 52.7956 32.0243 52.9237 31.4533C53.1333 30.4161 53.4011 29.3789 53.6922 28.3883C53.8552 27.8406 54.4373 27.5259 54.9846 27.6891C55.5318 27.8522 55.8462 28.4349 55.6831 28.9827C55.4037 29.9266 55.1592 30.8939 54.9496 31.8728C54.8448 32.3739 54.414 32.7119 53.9367 32.7119Z" fill="#556EE6"/>
<path d="M54.6811 29.7285C54.588 29.7285 54.4832 29.7169 54.3784 29.6819C53.8311 29.5187 53.5168 28.9361 53.6798 28.3883C55.2749 23.0509 57.9878 18.4593 61.5391 15.103C65.2184 11.6185 69.6196 9.64899 74.242 9.42757C78.7596 9.20615 83.2307 10.6745 87.1545 13.6579C90.927 16.5247 94.0591 20.6618 96.2014 25.638C96.4343 26.1624 96.1898 26.7801 95.6542 27.0132C95.1302 27.2463 94.5131 27.0015 94.2803 26.4654C90.1352 16.8511 82.4972 11.1174 74.3468 11.5136C66.0683 11.9098 58.733 18.7739 55.6824 28.9943C55.5427 29.4372 55.1352 29.7285 54.6811 29.7285Z" fill="#556EE6"/>
<path fill-rule="evenodd" clip-rule="evenodd" d="M60.0262 50.3332C59.1413 51.0208 58.0468 51.452 56.8475 51.5103C53.7388 51.6618 51.1074 49.2611 50.956 46.1495C50.8046 43.0379 53.2032 40.4041 56.3119 40.2526C57.7906 40.1826 59.1529 40.6838 60.2008 41.5695" fill="white"/>
<path d="M55.1693 51.4864C53.5043 51.4864 51.9325 50.8804 50.6983 49.75C49.3826 48.5496 48.6024 46.9064 48.5209 45.1234C48.4394 43.3404 49.0449 41.6273 50.2442 40.3104C51.4434 38.9935 53.0852 38.2127 54.8666 38.1311C56.5549 38.0495 58.1966 38.6089 59.4774 39.6927C59.9199 40.0656 59.9781 40.7183 59.6055 41.1611C59.2329 41.6039 58.5809 41.6622 58.1384 41.2893C57.2535 40.5434 56.1241 40.1589 54.9714 40.2171C53.7488 40.2754 52.6194 40.8115 51.7927 41.7205C50.9661 42.6295 50.5469 43.8065 50.6051 45.0302C50.6633 46.2538 51.1989 47.3842 52.1071 48.2117C53.0153 49.0391 54.1913 49.4586 55.4139 49.4004C56.3686 49.3537 57.2652 49.0274 58.0103 48.4447C58.4644 48.0951 59.1165 48.1767 59.4774 48.6312C59.8267 49.0857 59.7452 49.7383 59.2911 50.0996C58.2083 50.9503 56.9042 51.4281 55.5186 51.498C55.3906 51.4864 55.2858 51.4864 55.1693 51.4864Z" fill="#556EE6"/>
</svg>
