<svg width="219" height="493" viewBox="0 0 219 493" fill="none" xmlns="http://www.w3.org/2000/svg">
<g clip-path="url(#clip0)">
<path d="M194.65 392.777L205.314 409.391L218.064 420.132L182.441 460.159L189.936 424.073L176.027 411.091L194.65 392.777Z" fill="white"/>
<path d="M57.9547 443.159C58.2638 445.786 58.5729 452.277 58.882 456.682C60.8138 460.314 61.8957 463.714 63.3638 466.496C60.2729 470.127 36.2411 492.073 34.5411 492.768C32.8411 493.386 10.2002 492.768 10.2002 492.768C10.2002 491.068 22.5638 483.032 28.282 477.7C30.4456 474.996 34.0002 446.096 34.0002 440.3C38.0957 440.686 57.9547 443.159 57.9547 443.159Z" fill="white"/>
<path d="M137.545 224.709C138.395 230.659 141.64 309.323 141.64 321.918C146.431 327.714 190.863 385.205 190.863 392.082C185.609 398.032 178.422 404.445 174.095 408.464C171.313 411.014 103.313 338.145 102.077 334.359C100.84 330.65 91.3359 308.318 91.3359 303.141C91.3359 297.964 112.431 228.882 112.431 228.882L137.545 224.709Z" fill="#3B3744"/>
<path d="M169.537 404.523C166.909 404.368 144.964 381.959 132.059 368.591C118.305 354.373 97.5958 332.273 96.8231 329.955C96.514 329.027 95.664 326.941 94.5822 324.236C90.2549 313.264 86.0049 302.214 86.0049 298.505C86.0049 293.25 106.25 226.795 107.178 224.014C107.255 223.705 107.487 223.55 107.796 223.473L132.832 219.377C133.064 219.377 133.219 219.377 133.45 219.532C133.605 219.686 133.759 219.841 133.759 220.073C134.223 223.705 135.614 253.455 136.696 280.114C136.696 280.577 136.387 280.886 135.923 280.886C135.537 280.886 135.15 280.577 135.15 280.114C134.146 255.464 132.832 226.95 132.291 221L108.491 224.864C101.15 248.818 87.5503 294.486 87.5503 298.427C87.5503 302.136 93.0367 316.123 96.0503 323.618C97.1322 326.323 97.9822 328.486 98.2912 329.414C98.9867 331.114 114.441 348.036 132.909 367.123C151.841 386.75 166.523 401.123 169.382 402.823C171.469 400.582 175.023 397.182 178.578 393.859C181.205 391.309 183.755 388.914 185.532 387.136C184.373 379.718 142.955 325.705 136.464 317.745C136.387 317.591 136.309 317.436 136.309 317.282C136.309 314.964 136.232 310.482 136 303.836C136 303.373 136.309 303.064 136.773 303.064C137.159 303.064 137.546 303.373 137.546 303.836C137.778 310.25 137.855 314.732 137.855 317.127C142.259 322.614 187.078 380.259 187.078 387.523C187.078 387.755 187 387.909 186.846 388.064C184.991 389.918 182.364 392.468 179.582 395.095C175.873 398.65 172.009 402.282 170.155 404.368C170 404.445 169.769 404.523 169.537 404.523Z" fill="#556EE6"/>
<path d="M58.9595 228.882C57.7231 235.605 33.7686 438.523 33.7686 444.936C36.5504 448.568 52.7776 449.109 55.5595 447.332C58.3413 445.632 83.5322 326.864 85.6186 319.832C93.5004 314.577 125.646 241.632 125.646 230.582" fill="#3B3744"/>
<path d="M99.6815 100.764C139.863 100.764 138.472 216.673 136.154 225.095C133.836 233.595 57.7997 234.677 57.6452 228.109C56.177 166.368 51.927 100.764 99.6815 100.764Z" fill="#01CB70"/>
<path d="M69.6225 373.845C69.5453 373.845 69.5453 373.845 69.468 373.845C69.0816 373.768 68.7725 373.382 68.8498 372.918C70.6271 364.727 72.4044 356.536 73.9498 349.041C77.6589 331.732 80.5953 318.055 81.2907 315.736C81.368 315.582 81.4453 315.427 81.5998 315.35C84.9225 313.109 94.0407 296.186 104.318 273.236C114.363 250.75 121.318 231.664 121.318 226.718C121.318 226.255 121.627 225.945 122.091 225.945C122.554 225.945 122.863 226.255 122.863 226.718C122.863 232.668 114.286 254.691 105.709 273.855C97.9044 291.395 87.2407 312.877 82.6816 316.432C81.9089 319.291 79.0498 332.659 75.4953 349.35C73.8725 356.845 72.1725 364.959 70.3953 373.227C70.318 373.614 70.0089 373.845 69.6225 373.845Z" fill="#556EE6"/>
<path d="M54.7865 435.818H54.7092C53.8592 435.741 52.2365 435.586 50.2274 435.355C44.0456 434.736 34.6956 433.809 30.9092 432.882C30.6001 432.805 30.291 432.495 30.291 432.109C30.291 428.4 37.941 362.95 44.9728 303.682C45.0501 303.295 45.4365 302.986 45.8228 302.986C46.2092 303.064 46.5183 303.45 46.5183 303.836C39.7183 361.018 32.3774 423.918 31.8365 431.491C35.8547 432.341 44.8183 433.268 50.3046 433.809C52.0046 433.964 53.4728 434.118 54.4001 434.195C55.1728 432.573 57.491 424.614 63.5183 397.259C63.5956 396.873 64.0592 396.564 64.4456 396.641C64.8319 396.718 65.141 397.182 65.0637 397.568C56.7956 434.659 55.791 435.277 55.1728 435.664C55.0956 435.818 54.941 435.818 54.7865 435.818Z" fill="#556EE6"/>
<path d="M51.6184 255.773H51.5412C51.1548 255.695 50.8457 255.309 50.8457 254.923C52.3912 242.25 54.323 226.795 54.6321 224.864C54.7093 224.477 55.0957 224.168 55.5593 224.245C55.9457 224.323 56.2548 224.709 56.1775 225.173C55.9457 226.641 54.5548 237.227 52.3912 255.077C52.3139 255.541 52.0048 255.773 51.6184 255.773Z" fill="#556EE6"/>
<path d="M24.0322 490.682C17.6959 490.682 9.50497 490.45 7.18679 490.373C6.80043 490.373 6.41406 489.986 6.41406 489.6C6.41406 488.364 8.65497 486.586 15.0686 481.718C18.3913 479.168 22.255 476.309 24.7277 473.991C25.0368 473.604 25.9641 471.441 27.5868 461.009C27.6641 460.623 28.0504 460.314 28.4368 460.391C28.8232 460.468 29.1322 460.854 29.055 461.241C27.8186 469.277 26.7368 473.836 25.8095 474.995L25.7322 475.073C23.1822 477.468 19.3186 480.404 15.9186 482.954C13.1368 485.041 9.89133 487.514 8.50043 488.904C17.155 489.136 29.905 489.291 31.1413 488.904C31.8368 488.595 37.4777 483.727 46.5186 475.459C46.8277 475.15 47.2913 475.227 47.6004 475.536C47.9095 475.845 47.8322 476.309 47.5232 476.618C45.1277 478.782 33.0732 489.832 31.605 490.373C31.1413 490.604 27.8959 490.682 24.0322 490.682Z" fill="#556EE6"/>
<path d="M54.3224 470.127C54.0906 470.127 53.936 470.05 53.7815 469.895C53.4724 469.586 53.4724 469.123 53.7815 468.814C56.486 466.264 58.4951 464.332 59.4224 463.25C58.8042 462.014 58.2633 460.7 57.6451 459.309C56.9496 457.609 56.1769 455.832 55.1724 453.9C55.0951 453.823 55.0951 453.745 55.0951 453.591C54.9406 451.736 54.786 449.495 54.7087 447.409C54.5542 444.782 54.3996 442.309 54.2451 440.686L31.836 437.905C31.7587 440.068 31.4496 443.777 30.9087 448.336C30.8315 448.723 30.4451 449.109 30.0587 449.032C29.6724 448.954 29.3633 448.568 29.3633 448.182C29.9815 443.005 30.2906 438.832 30.2906 437.055C30.2906 436.823 30.3678 436.591 30.5224 436.436C30.6769 436.282 30.9087 436.205 31.1406 436.282L55.0178 439.218C55.4042 439.295 55.636 439.527 55.7133 439.914C55.8678 441.459 56.0997 444.318 56.2542 447.332C56.4087 449.418 56.486 451.505 56.6406 453.359C57.6451 455.214 58.3406 456.991 59.1133 458.691C59.7315 460.236 60.3497 461.704 61.0451 462.941C61.1997 463.25 61.1224 463.559 60.9678 463.791C59.9633 464.95 57.1042 467.732 54.8633 469.818C54.7087 470.05 54.4769 470.127 54.3224 470.127Z" fill="#556EE6"/>
<path d="M85.6958 230.041C71.4776 230.041 58.1867 229.036 55.3276 226.409C54.864 226.023 54.6322 225.559 54.6322 225.018C54.5549 222.005 54.4776 218.991 54.4003 216.055C53.9367 200.291 53.5503 183.986 54.014 169.15C54.014 168.764 54.4003 168.377 54.7867 168.377C55.2503 168.377 55.5594 168.764 55.5594 169.15C55.0958 183.986 55.4822 200.291 55.9458 215.977C56.0231 218.991 56.1003 222.005 56.1776 224.941C56.1776 225.018 56.2549 225.095 56.3322 225.173C59.6549 228.186 85.3094 229.345 108.105 227.568C108.569 227.568 108.878 227.877 108.955 228.264C109.032 228.65 108.646 229.036 108.259 229.114C101.537 229.732 93.5004 230.041 85.6958 230.041Z" fill="#556EE6"/>
<path d="M126.418 226.641C126.032 226.641 125.723 226.409 125.645 226.023C125.568 225.636 125.8 225.173 126.186 225.095C131.982 223.705 132.986 222.314 133.141 221.773C133.991 218.605 134.918 197.586 132.677 172.936C130.745 151.609 126.109 123.018 114.75 108.182C109.804 101.691 103.932 98.4455 97.3635 98.4455C73.7953 98.4455 60.8908 114.75 56.8726 149.677C56.7953 150.064 56.409 150.373 56.0226 150.373C55.6362 150.295 55.3271 149.909 55.3271 149.523C59.4226 113.668 72.7908 96.9 97.3635 96.9C104.473 96.9 110.732 100.377 115.986 107.255C137.391 135.227 136.85 214.2 134.686 222.236C134.223 224.014 131.673 225.405 126.65 226.641C126.495 226.641 126.495 226.641 126.418 226.641Z" fill="#556EE6"/>
<path d="M108.259 109.109C108.259 112.895 90.6412 112.586 90.9503 107.486C91.2594 102.386 92.573 80.6727 92.573 80.6727H108.259C108.259 80.75 108.259 105.323 108.259 109.109Z" fill="white"/>
<path d="M98.5231 110.114C95.2776 110.114 91.8003 109.495 89.714 108.182C88.0913 107.177 87.7822 105.941 87.8594 105.091L89.4822 78.2772C89.4822 77.8909 89.8685 77.5818 90.2549 77.5818H105.941C106.405 77.5818 106.714 77.8909 106.714 78.3545V106.791C106.714 107.409 106.482 108.259 105.169 108.955C103.778 109.727 101.228 110.114 98.5231 110.114ZM90.9503 79.2045L89.4049 105.245C89.4049 105.864 89.7913 106.405 90.564 106.945C93.8094 109.032 101.769 109.109 104.473 107.641C104.705 107.486 105.169 107.177 105.169 106.868V79.2045H90.9503Z" fill="#556EE6"/>
<path d="M124.955 62.3306C128.298 46.4188 122.375 31.7059 111.725 29.4685C101.075 27.231 89.732 38.3163 86.389 54.2281C83.046 70.1399 88.9692 84.8527 99.6188 87.0902C110.268 89.3276 121.612 78.2424 124.955 62.3306Z" fill="white"/>
<path d="M83.1456 62.8227C82.7593 62.8227 82.3729 62.5136 82.3729 62.05C82.2956 58.65 82.6047 55.1727 83.3002 51.6954C84.6911 45.05 87.4729 39.1 91.2593 34.4636C91.4911 34.1545 92.032 34.0773 92.3411 34.3863C92.6502 34.6954 92.7275 35.1591 92.4184 35.4682C88.7093 39.95 86.082 45.6682 84.7684 52.0045C84.0729 55.3273 83.7638 58.7272 83.8411 61.9727C83.9184 62.4363 83.6093 62.8227 83.1456 62.8227Z" fill="#556EE6"/>
<path d="M100.068 85.85C99.0637 85.85 98.1365 85.7727 97.1319 85.5409C91.3365 84.3045 86.5455 79.4363 84.0728 72.1727C83.9183 71.7863 84.1501 71.3227 84.5365 71.1682C84.9228 71.0136 85.3865 71.2454 85.541 71.6318C87.7819 78.3545 92.1092 82.9136 97.441 83.9954C99.0637 84.3045 100.686 84.3818 102.386 84.0727C102.85 83.9954 103.236 84.3045 103.314 84.6909C103.391 85.0772 103.082 85.5409 102.696 85.6182C101.768 85.7727 100.918 85.85 100.068 85.85Z" fill="#556EE6"/>
<path d="M112.741 26.7363C129.741 26.7363 138.241 44.6636 142.104 63.8272C145.195 79.2818 152.923 92.4181 152.923 105.555C152.923 125.259 140.018 142.645 126.65 142.645C105.863 142.645 98.0589 122.4 98.0589 113.282C98.0589 100.377 101.923 92.0318 101.923 76.1909C101.923 63.6727 94.1953 54.3227 94.1953 36.0091C94.1953 31.2954 101.613 26.7363 112.741 26.7363Z" fill="#EECB55"/>
<path d="M96.0499 115.059C95.6636 115.059 95.3545 114.75 95.2772 114.441C95.0454 113.205 94.9681 112.046 94.9681 110.964C94.9681 104.782 95.8181 99.6819 96.7454 94.2728C97.7499 88.3228 98.8318 82.141 98.8318 73.8728C98.8318 68.3091 97.209 63.2864 95.5863 57.9546C93.4999 51.3864 91.1045 43.891 91.1045 33.691C91.1045 28.7455 98.3681 23.6455 110.423 23.6455C119.232 23.6455 126.495 28.2819 131.982 37.4001C132.214 37.7864 132.059 38.2501 131.75 38.4819C131.364 38.7137 130.9 38.5591 130.668 38.2501C125.414 29.5955 118.614 25.2682 110.423 25.2682C99.759 25.2682 92.6499 29.6728 92.6499 33.7682C92.6499 43.7364 94.9681 51.0773 97.0545 57.5682C98.7545 63.0546 100.377 68.1546 100.377 73.9501C100.377 82.2955 99.2954 88.5546 98.2908 94.5819C97.3636 99.9137 96.5136 105.014 96.5136 111.041C96.5136 112.046 96.5909 113.127 96.8227 114.286C96.8999 114.673 96.5909 115.136 96.2045 115.136C96.1272 115.059 96.0499 115.059 96.0499 115.059Z" fill="#556EE6"/>
<path d="M124.332 141.1C116.141 141.1 108.877 137.932 103.545 131.827C103.236 131.518 103.314 131.055 103.623 130.745C103.932 130.436 104.395 130.514 104.704 130.823C109.882 136.618 116.45 139.555 124.332 139.555C129.741 139.555 135.304 136.541 140.018 131.132C140.327 130.823 140.791 130.745 141.1 131.055C141.409 131.364 141.486 131.827 141.177 132.136C136.232 137.855 130.204 141.1 124.332 141.1Z" fill="#556EE6"/>
<path d="M146.355 123.25C146.278 123.25 146.123 123.25 146.046 123.173C145.659 123.018 145.505 122.555 145.659 122.168C148.364 116.295 149.832 109.727 149.832 103.236C149.832 95.6636 147.205 88.0136 144.423 79.9C142.878 75.4954 141.332 70.9364 140.096 66.2227C140.019 65.8364 140.25 65.3727 140.637 65.2954C141.023 65.2182 141.487 65.45 141.564 65.8364C142.8 70.55 144.346 75.0318 145.814 79.3591C148.673 87.6273 151.378 95.3545 151.378 103.236C151.378 109.959 149.909 116.759 147.05 122.786C146.973 123.095 146.664 123.25 146.355 123.25Z" fill="#556EE6"/>
<path d="M60.3496 436.514H60.2723L27.0451 432.418C26.6587 432.341 26.3496 431.955 26.3496 431.568C26.4269 431.182 26.8132 430.873 27.1996 430.873L60.3496 434.968C60.736 435.045 61.0451 435.432 61.0451 435.818C61.0451 436.205 60.736 436.514 60.3496 436.514Z" fill="#556EE6"/>
<path d="M59.2684 441.382H59.1912L26.0412 437.286C25.6548 437.209 25.3457 436.823 25.3457 436.436C25.423 436.05 25.8093 435.741 26.1957 435.741L59.3457 439.836C59.7321 439.914 60.0412 440.3 60.0412 440.686C59.9639 441.073 59.6548 441.382 59.2684 441.382Z" fill="#556EE6"/>
<path d="M166.523 407.614C166.291 407.614 166.136 407.536 165.982 407.382C165.673 407.073 165.673 406.609 165.982 406.3L190.864 381.805C191.173 381.495 191.636 381.495 191.945 381.805C192.255 382.114 192.255 382.577 191.945 382.886L167.064 407.382C166.909 407.536 166.755 407.614 166.523 407.614Z" fill="#556EE6"/>
<path d="M168.841 412.018C168.609 412.018 168.455 411.941 168.3 411.786C167.991 411.477 167.991 411.014 168.3 410.705L193.182 386.209C193.491 385.9 193.955 385.9 194.264 386.209C194.573 386.518 194.573 386.982 194.264 387.291L169.382 411.786C169.227 411.941 169.073 412.018 168.841 412.018Z" fill="#556EE6"/>
<path d="M178.577 457.841C178.422 457.841 178.345 457.841 178.268 457.764C177.959 457.609 177.804 457.223 177.882 456.914L185.3 421.214L171.622 408.541C171.468 408.386 171.391 408.232 171.391 408C171.391 407.768 171.468 407.614 171.622 407.459L190.322 389.145C190.477 388.991 190.709 388.914 190.941 388.914C191.172 388.914 191.404 389.068 191.482 389.3L201.991 405.759L214.663 416.423C214.818 416.577 214.895 416.732 214.972 416.964C214.972 417.195 214.895 417.35 214.818 417.504L197.277 437.209C196.968 437.518 196.504 437.518 196.195 437.286C195.886 436.977 195.809 436.514 196.118 436.204L213.118 417.041L200.909 406.841C200.832 406.764 200.832 406.764 200.754 406.686L190.632 390.923L173.245 408L186.613 420.441C186.845 420.595 186.922 420.904 186.845 421.136L179.891 454.441L185.3 448.336C185.609 448.027 186.072 447.95 186.382 448.259C186.691 448.568 186.768 449.032 186.459 449.341L179.118 457.609C179.041 457.764 178.809 457.841 178.577 457.841Z" fill="#556EE6"/>
<path d="M51.8497 98.6C45.0497 96.7455 37.477 94.1955 35.6997 93.4228C34.1543 89.9455 14.2952 17.1546 10.9725 3.09094C8.8861 3.24549 6.18155 6.72276 8.11337 14.0637C4.40428 17.0773 -1.70027 23.1818 7.72701 32.8409C8.11337 35.4682 20.0134 107.023 21.1725 108.568C24.8816 113.591 39.4861 120.7 42.7316 122.014C43.6588 119.232 42.1906 114.673 51.8497 98.6Z" fill="white"/>
<path d="M92.6499 131.286C95.8954 122.014 65.6817 96.0499 56.8726 95.2772C51.6954 97.9045 39.409 118.382 42.1908 128.427C51.9272 134.686 87.2408 146.664 92.6499 131.286Z" fill="#01CB70"/>
<path d="M17.5412 32.2227C17.2321 32.2227 16.923 31.9909 16.7685 31.6818C12.9049 17.3864 10.123 6.56818 8.88669 1.7C8.42305 1.85455 7.80487 2.16364 7.4185 2.85909C6.72305 3.86364 6.10487 6.02727 7.18669 10.2773C7.26396 10.6636 7.03214 11.1273 6.64578 11.2045C6.25941 11.2818 5.79578 11.05 5.7185 10.6636C4.63669 6.72273 4.79123 3.78636 6.10487 1.93182C7.18669 0.463636 8.57759 0.0772727 9.35032 0C9.73669 0 10.0458 0.231818 10.2003 0.618182C11.2821 5.1 14.2185 16.3045 18.2367 31.2955C18.314 31.6818 18.0821 32.1455 17.6958 32.2227C17.6185 32.2227 17.5412 32.2227 17.5412 32.2227Z" fill="#556EE6"/>
<path d="M50.305 97.0546C50.2277 97.0546 50.1504 97.0546 50.0731 97.0546C43.2731 95.2 35.6231 92.65 33.8459 91.8C33.6913 91.7228 33.5368 91.5682 33.4595 91.4137C32.6095 89.4046 26.2731 66.6091 21.0959 47.7546C21.0186 47.3682 21.2504 46.9046 21.6368 46.8273C22.0231 46.75 22.4868 46.9819 22.564 47.3682C28.8231 70.3955 33.7686 87.7819 34.7731 90.5637C36.9368 91.4909 44.2004 93.8864 50.5368 95.5864C50.9231 95.6637 51.155 96.1273 51.0777 96.5137C51.0004 96.8228 50.6913 97.0546 50.305 97.0546Z" fill="#556EE6"/>
<path d="M15.9182 91.491C15.5318 91.491 15.2227 91.2591 15.1455 90.8728C12.0545 74.1819 8.19091 48.7591 6.33636 36.4728C5.95 34 5.71818 32.0682 5.48636 30.9091C2.85909 28.591 0.0772727 23.7228 0 19.7819C0 17.7728 0.618182 16.15 1.93182 15.0682C2.24091 14.7591 2.70455 14.8364 3.01364 15.1455C3.32273 15.4546 3.24545 15.9182 2.93636 16.2273C2.00909 17 1.54545 18.2364 1.54545 19.7046C1.62273 23.2591 4.25 27.8182 6.72273 29.9046C6.87727 30.0591 6.95455 30.2137 6.95455 30.3682C7.10909 31.5273 7.41818 33.5364 7.88182 36.241C9.73636 48.4501 13.6 73.95 16.6909 90.5637C16.7682 90.95 16.4591 91.4137 16.0727 91.491C15.9955 91.491 15.9955 91.491 15.9182 91.491Z" fill="#556EE6"/>
<path d="M39.6409 120.468C39.5637 120.468 39.5637 120.468 39.4864 120.468C36.0864 119.927 21.8682 110.655 19.0091 106.714C18.7773 106.327 18.3909 105.555 17.6955 102.85C17.6182 102.464 17.85 102 18.2364 101.923C18.6227 101.845 19.0864 102.077 19.1637 102.464C19.7818 105.014 20.1682 105.632 20.2455 105.786C23.0273 109.65 37.0137 118.459 39.7182 118.923C40.1046 119 40.4137 119.386 40.3364 119.773C40.3364 120.236 40.0273 120.468 39.6409 120.468Z" fill="#556EE6"/>
<path d="M75.5722 136.464C75.1086 136.464 74.7995 136.154 74.7995 135.691C74.7995 135.227 75.1086 134.918 75.5722 134.918C83.2222 134.918 87.9359 132.6 89.5586 127.964C91.4131 122.709 80.6722 110.5 69.6995 101.768C69.3904 101.536 69.3131 100.995 69.5449 100.686C69.7768 100.377 70.3177 100.3 70.6268 100.532C81.9859 109.573 93.1904 122.168 91.0268 128.427C89.1722 133.759 83.9949 136.464 75.5722 136.464Z" fill="#556EE6"/>
<path d="M53.0863 132.059C53.009 132.059 52.9318 132.059 52.8545 131.982C47.4454 130.127 42.5 127.886 39.4863 125.955C39.3318 125.877 39.1772 125.723 39.1772 125.491C36.1636 114.75 48.9909 94.1182 54.2454 91.4136C54.6318 91.1818 55.0954 91.3363 55.25 91.7227C55.4818 92.1091 55.3272 92.5727 54.9409 92.7272C50.3045 95.1227 38.1727 114.905 40.5681 124.718C43.5045 126.495 48.2181 128.659 53.3181 130.359C53.7045 130.514 53.9363 130.9 53.7818 131.364C53.7045 131.905 53.3954 132.059 53.0863 132.059Z" fill="#556EE6"/>
</g>
<defs>
<clipPath id="clip0">
<rect width="218.064" height="493" fill="white"/>
</clipPath>
</defs>
</svg>
